<svg version="1" xmlns="http://www.w3.org/2000/svg" width="1365.333" height="1365.333" viewBox="0 0 1024.000000 1024.000000"><path d="M449.8 232.8l-.3 171.8L301 318.8c-81.6-47.1-148.5-85.6-148.6-85.5-1.6 1.7-61.2 106.3-60.9 106.8.3.3 67.1 39.1 148.5 86 81.3 47 147.9 85.6 147.9 85.9 0 .3-66.6 38.9-148 85.9-81.3 46.9-148.1 85.7-148.4 86-.3.5 59.3 105.1 60.9 106.8.1.1 67-38.4 148.6-85.5l148.5-85.8.3 171.8.2 171.8h124l.2-171.8.3-171.8L723 705.1l148.5 85.8 1.6-2.7c4.7-7.6 58.9-102 59.3-103.3.4-1-41.1-25.4-147.9-86.9-81.6-47-148.4-85.7-148.4-86 0-.3 66.8-39 148.4-86 106.8-61.5 148.3-85.9 147.9-86.9-.4-1.3-54.6-95.7-59.3-103.3l-1.6-2.7L723 318.9l-148.5 85.7-.3-171.8L574 61H450l-.2 171.8z"/></svg>