<svg version="1" xmlns="http://www.w3.org/2000/svg" width="1365.333" height="1365.333" viewBox="0 0 1024.000000 1024.000000"><path d="M450.8 63c-.2.8-.3 78.1-.3 171.7 0 93.7-.2 170.3-.5 170.3s-5.2-2.7-11-6.1c-10.8-6.3-41.2-23.8-46.5-26.9-1.6-.9-11.3-6.5-21.4-12.3-10.1-5.9-18.5-10.7-18.7-10.7-.2 0-2.8-1.6-5.8-3.5s-5.7-3.5-6-3.5c-.3 0-3.5-1.8-7.1-4-3.6-2.2-6.8-4-7.2-4-.3 0-1.4-.6-2.2-1.4-.9-.7-4.1-2.7-7.1-4.3-7.7-4.2-11.7-6.5-17.6-10.1-2.8-1.8-5.6-3.2-6.3-3.2-.6 0-1.1-.5-1.1-1 0-.6-.4-1-.9-1s-8.6-4.4-17.9-9.8c-9.3-5.4-17.5-10.2-18.3-10.6-.8-.4-2.3-1.2-3.4-1.9-6.9-4.2-14.7-8.7-15.1-8.7-.2 0-2.1-1.1-4.2-2.3-6-3.8-76.8-44.6-78.4-45.2-1.1-.4-2.5 1-4.6 4.7-1.6 2.9-11.4 19.9-21.7 37.8-10.3 17.9-22.7 39.3-27.5 47.7l-8.8 15.2 23.7 13.7c13 7.5 25.2 14.6 27.1 15.6 1.9 1.1 6 3.5 9 5.3 3 1.8 7.5 4.4 10 5.7 2.5 1.4 11.2 6.4 19.3 11.2 8.2 4.7 16.7 9.7 19 11 4.8 2.7 34.6 19.9 58.2 33.6 8.8 5.1 18 10.4 20.5 11.8 2.5 1.4 16.9 9.7 32 18.5 15.1 8.8 29.5 17.1 32 18.5 4.3 2.3 17.7 10.1 37.3 21.5 4.8 2.8 8.6 5.6 8.4 6.1-.2.5-2.5 2.1-5.2 3.6-2.8 1.4-11.1 6.2-18.5 10.5s-19.3 11.2-26.5 15.3c-7.1 4.1-18.4 10.7-25 14.5-6.6 3.8-13.6 7.8-15.5 8.9-1.9 1.1-15.4 8.9-30 17.3s-27.9 16.1-29.7 17.1c-4.5 2.6-63.3 36.7-65.4 37.9-6.1 3.5-21.1 12.1-24.4 14-2.2 1.2-9.1 5.2-15.3 8.9-6.2 3.6-13.2 7.7-15.6 9-2.4 1.3-9.1 5.2-14.9 8.6l-10.5 6.1 8.5 14.7c4.7 8.1 9.9 17.2 11.5 20.2 1.7 3 3.4 5.9 3.8 6.5.4.5 1.7 2.6 2.8 4.6 5.3 9.5 11.8 20.8 13.7 23.9 1.2 1.9 6.4 10.8 11.5 19.7 5.1 9 9.6 16.3 9.9 16.3.4 0 5.3-2.8 11.1-6.1 5.8-3.4 12.1-7 14-8.1 1.9-1 4.9-2.7 6.5-3.7 1.7-1 12-7 23-13.3 23.8-13.7 71.7-41.3 94-54.3 8.8-5.1 17.7-10.2 19.7-11.3 2-1.2 5.5-3.2 7.7-4.6 2.2-1.5 4.3-2.6 4.5-2.6.2 0 5-2.7 10.5-6 5.6-3.3 10.4-6 10.6-6 .3 0 2.4-1.1 4.6-2.6 2.2-1.4 5.5-3.3 7.2-4.3 1.8-1 20.9-12 42.5-24.5s39.8-22.9 40.5-23.2c1-.3 1.2 34.1 1.2 171.3v171.8h61.3c39.9 0 61.3-.3 61.5-1 .2-.6.3-77.8.2-171.8 0-147.9.2-170.7 1.4-170.2.8.3 6.2 3.3 12 6.7 5.8 3.4 17.8 10.3 26.6 15.3 8.8 5.1 23.2 13.4 32 18.5s18 10.4 20.5 11.8c2.5 1.4 6.2 3.6 8.2 4.9 2.1 1.2 4 2.3 4.2 2.3.2 0 5.1 2.8 10.8 6.1 9 5.4 27.8 16.3 40.3 23.4 4.6 2.6 24.9 14.4 58 33.5 24.1 13.9 53.4 30.8 72.1 41.6 6.1 3.5 11.4 6.4 11.7 6.4.4 0 6.8-10.9 19.7-33.5 1-1.7 9.1-15.8 18.2-31.5s17.3-29.9 18.2-31.5c.9-1.7 2.5-4.5 3.6-6.2l1.9-3.3-6.7-3.8c-3.7-2.2-8.7-5.1-11.2-6.4-2.5-1.4-16.9-9.7-32-18.5-60.4-35-66.7-38.6-71-41.1-2.5-1.3-8.1-4.6-12.5-7.2-6.4-3.8-50.2-29-65.5-37.8-35.4-20.2-97.6-56.4-97.8-57-.3-.9-1.1-.4 23.3-14.4 11-6.3 25.9-14.9 33.2-19.1 7.2-4.2 14.7-8.5 16.5-9.6 3.3-1.8 37.2-21.4 70.3-40.6 9.4-5.4 24-13.8 32.5-18.8 8.5-4.9 17.5-10.1 19.9-11.5 2.5-1.4 6.8-3.8 9.5-5.5 2.8-1.6 6.7-3.9 8.6-5 1.9-1 10.9-6.2 20-11.5 9.1-5.2 17.9-10.3 19.5-11.2 1.7-.9 8.6-4.9 15.3-8.9 6.8-3.9 12.7-7.1 13.2-7.1.6 0 1-.3 1-.8 0-.4 2.6-2 5.8-3.6 3.1-1.6 6.2-3.4 6.9-3.8 1-.8-15.2-30.1-34.5-62.6-1.8-2.9-3.2-5.5-3.2-5.8 0-.2-1.7-3.3-3.9-6.7-2.1-3.4-7.1-12-11.1-19-5.1-8.9-7.7-12.6-8.7-12.3-.8.3-4.7 2.5-8.6 4.8-4 2.3-8.8 5.1-10.8 6.3-9.7 5.4-20.6 11.7-21.9 12.5-.8.5-4 2.4-7 4.1-3 1.7-14.5 8.3-25.5 14.7-11 6.3-21.3 12.3-23 13.2-12 6.9-33.3 19.2-34.5 20-.8.5-5.1 3-9.5 5.5s-9.8 5.6-12 6.9c-8.7 5.1-30.9 17.9-35.3 20.3-2.6 1.4-5.1 2.9-5.7 3.3-.5.4-11.7 6.9-24.8 14.5-13.1 7.5-25.3 14.5-27 15.5-1.8 1.1-5.4 3.2-8.2 4.7-2.7 1.5-5.8 3.2-6.7 3.8-7.1 4.3-35.5 20.5-35.8 20.5-.3 0-.5-77.3-.5-171.7V61.5h-61.2c-54.3-.1-61.2.1-61.5 1.5z"/></svg>